<svg width="200" height="200" viewBox="0 0 200 200" fill="none" xmlns="http://www.w3.org/2000/svg">
<path d="M200 100C200 155.228 155.228 200 100 200C44.7715 200 0 155.228 0 100C0 44.7715 44.7715 0 100 0C155.228 0 200 44.7715 200 100Z" fill="#059669"/>
<path d="M65.8 177.8C61.2667 177.8 57.2 176.133 53.6 172.8C50 169.333 48.2 163.533 48.2 155.4C48.2 150.067 48.9333 144.133 50.4 137.6C52 131.067 53.8667 124.333 56 117.4C58.2667 110.333 60.5333 103.533 62.8 97C65.0667 90.4667 66.9333 84.5333 68.4 79.2C69.8667 73.8667 70.6 69.6667 70.6 66.6C70.6 63 69.2 61.2 66.4 61.2C63.0667 61.2 59.9333 63.1333 57 67C54.0667 70.7333 50.8 76 47.2 82.8L46 82.4C46 71.8667 48.8 62.7333 54.4 55C60 47.1333 67.5333 41.0667 77 36.8C86.6 32.5333 97.2667 30.4 109 30.4C120.867 30.4 130.467 32.4667 137.8 36.6C145.267 40.6 150.733 45.8667 154.2 52.4C157.8 58.8 159.6 65.6667 159.6 73C159.6 79.2667 158.4 85.5333 156 91.8C153.733 97.9333 150.4 103.533 146 108.6C141.733 113.667 136.667 117.733 130.8 120.8C124.933 123.867 118.467 125.4 111.4 125.4C104.067 125.4 96.4667 123.533 88.6 119.8C86.8667 126.333 85.3333 133 84 139.8C82.6667 146.467 82 153.333 82 160.4C82 163.867 82.2 167.333 82.6 170.8C80.3333 173.067 77.6667 174.8 74.6 176C71.6667 177.2 68.7333 177.8 65.8 177.8ZM97.8 105.4C103.133 105.4 107.8 103.933 111.8 101C115.8 97.9333 118.867 94.1333 121 89.6C123.267 84.9333 124.4 80.2667 124.4 75.6C124.4 70.1333 122.6 65.2667 119 61C115.533 56.7333 109.8 54.6 101.8 54.6C100.733 54.6 99.4667 54.6667 98 54.8C96.6667 54.9333 95.2667 55.1333 93.8 55.4C94.8667 58.7333 95.5333 62.0667 95.8 65.4C96.2 68.6 96.4 71.7333 96.4 74.8C96.4 80.1333 96 85.2667 95.2 90.2C94.4 95.1333 93.4667 100 92.4 104.8C94.2667 105.2 96.0667 105.4 97.8 105.4Z" fill="white"/>
</svg>
